# xmcd
# 
# Track frame offsets:
#     150
#     18078
#     31356
#     45459
#     60612
#     76515
#     85743
#     99621
#     117174
#     139452
# 
# Disc length: 2021
# 
# Revision: 0
# Processed by: cddbd v1.5.2PL0 Copyright (c) Steve Scherf et al.
# Submitted via: fre:ac v1.0.31
# 
DISCID=7107e30a
DTITLE=The Blues Band - Official Blues Band Bootleg Album
DYEAR=1980
DGENRE=Blues
TTITLE0=the blues band - talk to me baby
TTITLE1=the blues band - flatfoot sam
TTITLE2=the blues band - two bones and a pick
TTITLE3=the blues band - someday baby
TTITLE4=the blues band - boom boom (out go the lights)
TTITLE5=the blues band - come on in
TTITLE6=the blues band - death letter
TTITLE7=the blues band - going home
TTITLE8=the blues band - i don't know
TTITLE9=the blues band - diddy wah diddy
EXTD=YEAR: 1980
EXTT0=
EXTT1=
EXTT2=
EXTT3=
EXTT4=
EXTT5=
EXTT6=
EXTT7=
EXTT8=
EXTT9=
PLAYORDER=
